<svg xmlns="http://www.w3.org/2000/svg" width="1700" height="990" viewBox="0 0 1700 990" font-family="DejaVu Sans, sans-serif">
<defs><marker id="ab" viewBox="0 0 10 10" refX="8" refY="5" markerWidth="6" markerHeight="6" orient="auto-start-reverse"><path d="M2 1L8 5L2 9" fill="none" stroke="#3B4FA8" stroke-width="2" stroke-linecap="round" stroke-linejoin="round"/></marker><marker id="ar" viewBox="0 0 10 10" refX="8" refY="5" markerWidth="6" markerHeight="6" orient="auto-start-reverse"><path d="M2 1L8 5L2 9" fill="none" stroke="#C0392B" stroke-width="2" stroke-linecap="round" stroke-linejoin="round"/></marker><marker id="ao" viewBox="0 0 10 10" refX="8" refY="5" markerWidth="6" markerHeight="6" orient="auto-start-reverse"><path d="M2 1L8 5L2 9" fill="none" stroke="#D97E1F" stroke-width="2" stroke-linecap="round" stroke-linejoin="round"/></marker><marker id="ag" viewBox="0 0 10 10" refX="8" refY="5" markerWidth="6" markerHeight="6" orient="auto-start-reverse"><path d="M2 1L8 5L2 9" fill="none" stroke="#17694A" stroke-width="2" stroke-linecap="round" stroke-linejoin="round"/></marker><marker id="an" viewBox="0 0 10 10" refX="8" refY="5" markerWidth="6" markerHeight="6" orient="auto-start-reverse"><path d="M2 1L8 5L2 9" fill="none" stroke="#17356B" stroke-width="2" stroke-linecap="round" stroke-linejoin="round"/></marker><marker id="ay" viewBox="0 0 10 10" refX="8" refY="5" markerWidth="6" markerHeight="6" orient="auto-start-reverse"><path d="M2 1L8 5L2 9" fill="none" stroke="#9AA5AA" stroke-width="2" stroke-linecap="round" stroke-linejoin="round"/></marker></defs>
<rect width="1700" height="990" fill="#FFFFFF"/>
<text x="850.0" y="38" font-size="30" font-weight="700" fill="#17356B" text-anchor="middle">FARAJAMH-ADAPTED MINORITY REPORT</text>
<text x="850.0" y="64" font-size="14" font-weight="700" fill="#1A7E8C" text-anchor="middle">Stage 1 of the v10 architecture: AI-assisted translation &amp; candidate interpretation, from raw utterance to human-approved meaning</text>
<rect x="20" y="78" width="1660" height="30" rx="8" fill="#F2F6FA" stroke="#17356B" stroke-width="1.4"/>
<text x="850.0" y="98" font-size="13" font-weight="700" fill="#17356B" text-anchor="middle">AI proposes  →  models compare &amp; disagree  →  humans interpret &amp; validate  →  local concept first  →  semantic mappings only after approval</text>
<rect x="20" y="140" width="160" height="420" rx="9" fill="#F4F6F7" stroke="#9AA5AA" stroke-width="1.6"/>
<rect x="20" y="140" width="160" height="26" rx="9" fill="#5C6A70"/>
<rect x="20" y="157" width="160" height="9" fill="#5C6A70"/>
<text x="100.0" y="157.5" font-size="11" font-weight="700" fill="#FFFFFF" text-anchor="middle">INPUT (from Silver)</text>
<text x="30" y="188.0" font-size="9.3" font-weight="400" fill="#1A2E35" text-anchor="start">Original utterance</text>
<text x="30" y="202.5" font-size="9.3" font-weight="400" fill="#1A2E35" text-anchor="start">Expression span</text>
<text x="30" y="217.0" font-size="9.3" font-weight="400" fill="#1A2E35" text-anchor="start">Modality / ASR info</text>
<text x="30" y="231.5" font-size="9.3" font-weight="400" fill="#1A2E35" text-anchor="start">Context resolved</text>
<text x="30" y="246.0" font-size="9.3" font-weight="400" fill="#1A2E35" text-anchor="start">in Silver:</text>
<text x="30" y="260.5" font-size="9.3" font-weight="400" fill="#1A2E35" text-anchor="start">– negation</text>
<text x="30" y="275.0" font-size="9.3" font-weight="400" fill="#1A2E35" text-anchor="start">– temporality</text>
<text x="30" y="289.5" font-size="9.3" font-weight="400" fill="#1A2E35" text-anchor="start">– attribution</text>
<text x="30" y="304.0" font-size="9.3" font-weight="400" fill="#1A2E35" text-anchor="start">– speaker, setting</text>
<text x="30" y="318.5" font-size="9.3" font-weight="400" fill="#1A2E35" text-anchor="start">– region, dialect</text>
<text x="30" y="333.0" font-size="9.3" font-weight="400" fill="#1A2E35" text-anchor="start">Conversation window</text>
<text x="30" y="347.5" font-size="9.3" font-weight="400" fill="#1A2E35" text-anchor="start">Triage route:</text>
<text x="30" y="362.0" font-size="9.3" font-weight="400" fill="#1A2E35" text-anchor="start">– NEW or NEAR MATCH</text>
<text x="30" y="376.5" font-size="9.3" font-weight="400" fill="#1A2E35" text-anchor="start">   (different concept)</text>
<text x="30" y="391.0" font-size="9.3" font-weight="400" fill="#1A2E35" text-anchor="start">Safety flag</text>
<text x="30" y="405.5" font-size="9.3" font-weight="400" fill="#1A2E35" text-anchor="start">Data class</text>
<text x="100" y="535" font-size="8.5" font-weight="400" fill="#5C6A70" text-anchor="middle" font-style="italic">schema: utterance_input</text>
<rect x="194" y="140" width="142" height="420" rx="9" fill="#FDF0EF" stroke="#C0392B" stroke-width="1.6"/>
<rect x="194" y="140" width="142" height="26" rx="9" fill="#A3161C"/>
<rect x="194" y="157" width="142" height="9" fill="#A3161C"/>
<text x="265.0" y="157.5" font-size="11" font-weight="700" fill="#FFFFFF" text-anchor="middle">SAFETY GATE</text>
<text x="204" y="190.0" font-size="9.3" font-weight="400" fill="#1A2E35" text-anchor="start">Runs before triage</text>
<text x="204" y="204.5" font-size="9.3" font-weight="400" fill="#1A2E35" text-anchor="start">(v10 step 1).</text>
<text x="204" y="219.0" font-size="9.3" font-weight="400" fill="#1A2E35" text-anchor="start"></text>
<text x="204" y="233.5" font-size="9.3" font-weight="400" fill="#1A2E35" text-anchor="start">Flagged and NOT</text>
<text x="204" y="248.0" font-size="9.3" font-weight="400" fill="#1A2E35" text-anchor="start">escalated →</text>
<text x="204" y="262.5" font-size="9.3" font-weight="400" fill="#1A2E35" text-anchor="start">BLOCKED.</text>
<text x="204" y="277.0" font-size="9.3" font-weight="400" fill="#1A2E35" text-anchor="start">No model sees it.</text>
<text x="204" y="291.5" font-size="9.3" font-weight="400" fill="#1A2E35" text-anchor="start"></text>
<text x="204" y="306.0" font-size="9.3" font-weight="400" fill="#1A2E35" text-anchor="start">Clinician escalation</text>
<text x="204" y="320.5" font-size="9.3" font-weight="400" fill="#1A2E35" text-anchor="start">never waits for</text>
<text x="204" y="335.0" font-size="9.3" font-weight="400" fill="#1A2E35" text-anchor="start">interpretation.</text>
<text x="204" y="349.5" font-size="9.3" font-weight="400" fill="#1A2E35" text-anchor="start"></text>
<text x="204" y="364.0" font-size="9.3" font-weight="400" fill="#1A2E35" text-anchor="start">Curation may follow</text>
<text x="204" y="378.5" font-size="9.3" font-weight="400" fill="#1A2E35" text-anchor="start">after escalation is</text>
<text x="204" y="393.0" font-size="9.3" font-weight="400" fill="#1A2E35" text-anchor="start">recorded.</text>
<text x="265" y="545" font-size="8.5" font-weight="700" fill="#C0392B" text-anchor="middle">policy D2</text>
<path d="M180 350 L192 350" fill="none" stroke="#9AA5AA" stroke-width="1.8" marker-end="url(#ay)"/>
<path d="M336 350 L348 350" fill="none" stroke="#3B4FA8" stroke-width="1.8" marker-end="url(#ab)"/>
<rect x="350" y="140" width="650" height="420" rx="9" fill="#F7F8FD" stroke="#3B4FA8" stroke-width="2"/>
<rect x="350" y="140" width="650" height="28" rx="9" fill="#3B4FA8"/>
<rect x="350" y="159" width="650" height="9" fill="#3B4FA8"/>
<text x="675.0" y="157.5" font-size="11" font-weight="700" fill="#FFFFFF" text-anchor="middle">FARAJAMH MINORITY REPORT  —  AI candidate generation &amp; disagreement detection (never decides)</text>
<rect x="364" y="182" width="200" height="176" rx="7" fill="#FFFFFF" stroke="#3B4FA8" stroke-width="1.3"/>
<text x="374" y="202" font-size="11" font-weight="700" fill="#3B4FA8" text-anchor="start">M1  NORMALISE</text>
<text x="374" y="224" font-size="9.2" font-weight="400" fill="#1A2E35" text-anchor="start">•  1 model + rule list</text>
<text x="374" y="239" font-size="9.2" font-weight="400" fill="#1A2E35" text-anchor="start">•  l/r variants, Sheng, ASR</text>
<text x="374" y="254" font-size="9.2" font-weight="400" fill="#1A2E35" text-anchor="start">•  Every edit recorded</text>
<text x="374" y="269" font-size="9.2" font-weight="400" fill="#1A2E35" text-anchor="start">•  Code-switch segments</text>
<text x="374" y="284" font-size="9.2" font-weight="400" fill="#1A2E35" text-anchor="start">•  Original never altered</text>
<rect x="374" y="332" width="120.39999999999999" height="16" rx="8" fill="#17694A" opacity="0.14"/>
<text x="381" y="343.5" font-size="8.5" font-weight="700" fill="#17694A" text-anchor="start">adapted: new prompt</text>
<path d="M564 270.0 L574 270.0" fill="none" stroke="#3B4FA8" stroke-width="1.5" marker-end="url(#ab)"/>
<rect x="576" y="182" width="200" height="176" rx="7" fill="#FFFFFF" stroke="#3B4FA8" stroke-width="1.3"/>
<text x="586" y="202" font-size="11" font-weight="700" fill="#3B4FA8" text-anchor="start">M2  TRANSLATE × N</text>
<text x="586" y="224" font-size="9.2" font-weight="400" fill="#1A2E35" text-anchor="start">•  Each model independently</text>
<text x="586" y="239" font-size="9.2" font-weight="400" fill="#1A2E35" text-anchor="start">•  Literal gloss + idiomatic</text>
<text x="586" y="254" font-size="9.2" font-weight="400" fill="#1A2E35" text-anchor="start">•  Keep roho / moyo / mawazo</text>
<text x="586" y="269" font-size="9.2" font-weight="400" fill="#1A2E35" text-anchor="start">•  Ring back-translation</text>
<text x="586" y="284" font-size="9.2" font-weight="400" fill="#1A2E35" text-anchor="start">•  Flag lost cultural terms</text>
<rect x="586" y="332" width="137.2" height="16" rx="8" fill="#D97E1F" opacity="0.14"/>
<text x="593" y="343.5" font-size="8.5" font-weight="700" fill="#D97E1F" text-anchor="start">modified: voter prompt</text>
<path d="M776 270.0 L786 270.0" fill="none" stroke="#3B4FA8" stroke-width="1.5" marker-end="url(#ab)"/>
<rect x="788" y="182" width="200" height="176" rx="7" fill="#FFFFFF" stroke="#3B4FA8" stroke-width="1.3"/>
<text x="798" y="202" font-size="11" font-weight="700" fill="#3B4FA8" text-anchor="start">M3  INTERPRET × N</text>
<text x="798" y="224" font-size="9.2" font-weight="400" fill="#1A2E35" text-anchor="start">•  1–4 senses per model</text>
<text x="798" y="239" font-size="9.2" font-weight="400" fill="#1A2E35" text-anchor="start">•  Blind to other models</text>
<text x="798" y="254" font-size="9.2" font-weight="400" fill="#1A2E35" text-anchor="start">•  Non-medical readings kept</text>
<text x="798" y="269" font-size="9.2" font-weight="400" fill="#1A2E35" text-anchor="start">•  Rationale + evidence spans</text>
<text x="798" y="284" font-size="9.2" font-weight="400" fill="#1A2E35" text-anchor="start">•  Uses Silver context</text>
<rect x="798" y="332" width="30.799999999999997" height="16" rx="8" fill="#C0392B" opacity="0.14"/>
<text x="805" y="343.5" font-size="8.5" font-weight="700" fill="#C0392B" text-anchor="start">new</text>
<rect x="364" y="372" width="200" height="176" rx="7" fill="#FFFFFF" stroke="#3B4FA8" stroke-width="1.3"/>
<text x="374" y="392" font-size="11" font-weight="700" fill="#3B4FA8" text-anchor="start">M4  COMPARE</text>
<text x="374" y="414" font-size="9.2" font-weight="400" fill="#1A2E35" text-anchor="start">•  Code, not an LLM</text>
<text x="374" y="429" font-size="9.2" font-weight="400" fill="#1A2E35" text-anchor="start">•  Cluster senses; no winner</text>
<text x="374" y="444" font-size="9.2" font-weight="400" fill="#1A2E35" text-anchor="start">•  Unanimous/majority/minority</text>
<text x="374" y="459" font-size="9.2" font-weight="400" fill="#1A2E35" text-anchor="start">•  Divergence &amp; risk flags</text>
<text x="374" y="474" font-size="9.2" font-weight="400" fill="#1A2E35" text-anchor="start">•  Minority readings kept</text>
<rect x="374" y="522" width="120.39999999999999" height="16" rx="8" fill="#D97E1F" opacity="0.14"/>
<text x="381" y="533.5" font-size="8.5" font-weight="700" fill="#D97E1F" text-anchor="start">replaces arbitrator</text>
<path d="M564 460.0 L574 460.0" fill="none" stroke="#3B4FA8" stroke-width="1.5" marker-end="url(#ab)"/>
<rect x="576" y="372" width="200" height="176" rx="7" fill="#FFFFFF" stroke="#3B4FA8" stroke-width="1.3"/>
<text x="586" y="392" font-size="11" font-weight="700" fill="#3B4FA8" text-anchor="start">M5  CONCEPT CANDIDATES</text>
<text x="586" y="414" font-size="9.2" font-weight="400" fill="#1A2E35" text-anchor="start">•  Query SNOMED CT (Snowstorm)</text>
<text x="586" y="429" font-size="9.2" font-weight="400" fill="#1A2E35" text-anchor="start">•  + MFOEM (OLS) in parallel</text>
<text x="586" y="444" font-size="9.2" font-weight="400" fill="#1A2E35" text-anchor="start">•  Every model ranks</text>
<text x="586" y="459" font-size="9.2" font-weight="400" fill="#1A2E35" text-anchor="start">•  IDs only from retrieval</text>
<text x="586" y="474" font-size="9.2" font-weight="400" fill="#1A2E35" text-anchor="start">•  'No adequate match' valid</text>
<rect x="586" y="522" width="131.6" height="16" rx="8" fill="#17694A" opacity="0.14"/>
<text x="593" y="533.5" font-size="8.5" font-weight="700" fill="#17694A" text-anchor="start">extends ontoportal.py</text>
<path d="M776 460.0 L786 460.0" fill="none" stroke="#3B4FA8" stroke-width="1.5" marker-end="url(#ab)"/>
<rect x="788" y="372" width="200" height="176" rx="7" fill="#FFFFFF" stroke="#3B4FA8" stroke-width="1.3"/>
<text x="798" y="392" font-size="11" font-weight="700" fill="#3B4FA8" text-anchor="start">M6  PACKAGE</text>
<text x="798" y="414" font-size="9.2" font-weight="400" fill="#1A2E35" text-anchor="start">•  Layers L1–L7, provenance</text>
<text x="798" y="429" font-size="9.2" font-weight="400" fill="#1A2E35" text-anchor="start">•  Model digests, prompt hashes</text>
<text x="798" y="444" font-size="9.2" font-weight="400" fill="#1A2E35" text-anchor="start">•  Review priority + roles</text>
<text x="798" y="459" font-size="9.2" font-weight="400" fill="#1A2E35" text-anchor="start">•  Confidence as components</text>
<text x="798" y="474" font-size="9.2" font-weight="400" fill="#1A2E35" text-anchor="start">•  status = awaiting_review</text>
<rect x="798" y="522" width="137.2" height="16" rx="8" fill="#17694A" opacity="0.14"/>
<text x="805" y="533.5" font-size="8.5" font-weight="700" fill="#17694A" text-anchor="start">extends Croissant/PROV</text>
<path d="M888.0 358 L888.0 365 L464.0 365 L464.0 370" fill="none" stroke="#3B4FA8" stroke-width="1.5" marker-end="url(#ab)"/>
<path d="M1000 350 L1012 350" fill="none" stroke="#3B4FA8" stroke-width="1.8" marker-end="url(#ab)"/>
<rect x="1014" y="140" width="186" height="420" rx="9" fill="#FFFFFF" stroke="#C0392B" stroke-width="1.8"/>
<rect x="1014" y="140" width="186" height="26" rx="9" fill="#C0392B"/>
<rect x="1014" y="157" width="186" height="9" fill="#C0392B"/>
<text x="1107.0" y="157.5" font-size="11" font-weight="700" fill="#FFFFFF" text-anchor="middle">HUMAN REVIEW (stage 2)</text>
<text x="1024" y="188.0" font-size="9.5" font-weight="400" fill="#1A2E35" text-anchor="start">•  Linguist</text>
<text x="1024" y="202.5" font-size="9.5" font-weight="400" fill="#1A2E35" text-anchor="start">•  Cultural expert</text>
<text x="1024" y="217.0" font-size="9.5" font-weight="400" fill="#1A2E35" text-anchor="start">•  Clinician</text>
<text x="1024" y="231.5" font-size="9.5" font-weight="400" fill="#1A2E35" text-anchor="start">•  Lived experience (LEAB)</text>
<text x="1024" y="256.0" font-size="9.3" font-weight="400" fill="#1A2E35" text-anchor="start">1. Blind first pass on a</text>
<text x="1024" y="270.5" font-size="9.3" font-weight="400" fill="#1A2E35" text-anchor="start">   sample: own reading</text>
<text x="1024" y="285.0" font-size="9.3" font-weight="400" fill="#1A2E35" text-anchor="start">   before seeing AI</text>
<text x="1024" y="299.5" font-size="9.3" font-weight="400" fill="#1A2E35" text-anchor="start">2. Decide each layer</text>
<text x="1024" y="314.0" font-size="9.3" font-weight="400" fill="#1A2E35" text-anchor="start">   separately: normalise,</text>
<text x="1024" y="328.5" font-size="9.3" font-weight="400" fill="#1A2E35" text-anchor="start">   translate, interpret,</text>
<text x="1024" y="343.0" font-size="9.3" font-weight="400" fill="#1A2E35" text-anchor="start">   context, concepts</text>
<text x="1024" y="357.5" font-size="9.3" font-weight="400" fill="#1A2E35" text-anchor="start">3. May add a sense no</text>
<text x="1024" y="372.0" font-size="9.3" font-weight="400" fill="#1A2E35" text-anchor="start">   model proposed</text>
<text x="1024" y="386.5" font-size="9.3" font-weight="400" fill="#1A2E35" text-anchor="start">4. Adjudicator records</text>
<text x="1024" y="401.0" font-size="9.3" font-weight="400" fill="#1A2E35" text-anchor="start">   final decision</text>
<text x="1024" y="415.5" font-size="9.3" font-weight="400" fill="#1A2E35" text-anchor="start"></text>
<text x="1024" y="430.0" font-size="9.3" font-weight="400" fill="#1A2E35" text-anchor="start">AI candidates are</text>
<text x="1024" y="444.5" font-size="9.3" font-weight="400" fill="#1A2E35" text-anchor="start">evidence, not defaults.</text>
<text x="1107" y="545" font-size="8.5" font-weight="400" fill="#C0392B" text-anchor="middle" font-style="italic">schema: review_decision</text>
<path d="M1200 350 L1212 350" fill="none" stroke="#C0392B" stroke-width="1.8" marker-end="url(#ar)"/>
<rect x="1212" y="140" width="468" height="112" rx="9" fill="#FFFDF8" stroke="#D97E1F" stroke-width="1.8"/>
<rect x="1212" y="140" width="468" height="26" rx="9" fill="#D97E1F"/>
<rect x="1212" y="157" width="468" height="9" fill="#D97E1F"/>
<text x="1446.0" y="157.5" font-size="11" font-weight="700" fill="#FFFFFF" text-anchor="middle">LOCAL CONCEPT LAYER (stage 2.5) — written only after a final decision</text>
<text x="1222" y="186" font-size="9.3" font-weight="400" fill="#1A2E35" text-anchor="start">•  Create a concept or add a variant (dialect, region, spelling); approved translation and meaning</text>
<text x="1222" y="201" font-size="9.3" font-weight="400" fill="#1A2E35" text-anchor="start">•  clinical_status: non-clinical cultural / possible indicator / symptom expression / safety-relevant</text>
<text x="1222" y="216" font-size="9.3" font-weight="400" fill="#1A2E35" text-anchor="start">•  Valid even with no external concept. Holds meaning, not patient data.</text>
<rect x="1212" y="264" width="468" height="104" rx="9" fill="#F0F7F3" stroke="#17694A" stroke-width="1.6"/>
<rect x="1212" y="264" width="468" height="26" rx="9" fill="#17694A"/>
<rect x="1212" y="281" width="468" height="9" fill="#17694A"/>
<text x="1446.0" y="281.5" font-size="11" font-weight="700" fill="#FFFFFF" text-anchor="middle">CONCEPT DECISION per approved meaning (v10 stages 3–4)</text>
<text x="1222" y="308" font-size="9.3" font-weight="400" fill="#1A2E35" text-anchor="start">•  approve → predicate (exact / broad / narrow / related) + reviewer confidence</text>
<text x="1222" y="323" font-size="9.3" font-weight="400" fill="#1A2E35" text-anchor="start">•  reject with 'Not' → recorded negative mapping (e.g. bewitchment ≠ persecutory delusion)</text>
<text x="1222" y="338" font-size="9.3" font-weight="400" fill="#1A2E35" text-anchor="start">•  no adequate concept → semantic gap (not a failure)      defer → nothing leaves the package</text>
<path d="M1446.0 252 L1446.0 262" fill="none" stroke="#D97E1F" stroke-width="1.8" marker-end="url(#ao)"/>
<rect x="1212" y="382" width="228" height="108" rx="9" fill="#FFFFFF" stroke="#17356B" stroke-width="1.8"/>
<rect x="1212" y="382" width="228" height="26" rx="9" fill="#17356B"/>
<rect x="1212" y="399" width="228" height="9" fill="#17356B"/>
<text x="1326.0" y="399.5" font-size="11" font-weight="700" fill="#FFFFFF" text-anchor="middle">SSSOM (governed output)</text>
<text x="1222" y="426" font-size="9" font-weight="400" fill="#1A2E35" text-anchor="start">•  subject = local concept (FMHLC)</text>
<text x="1222" y="439" font-size="9" font-weight="400" fill="#1A2E35" text-anchor="start">•  ManualMappingCuration</text>
<text x="1222" y="452" font-size="9" font-weight="400" fill="#1A2E35" text-anchor="start">•  author / reviewer IDs</text>
<text x="1222" y="465" font-size="9" font-weight="400" fill="#1A2E35" text-anchor="start">•  tool + version, dates</text>
<text x="1222" y="478" font-size="9" font-weight="400" fill="#1A2E35" text-anchor="start">•  package ID in comment</text>
<rect x="1452" y="382" width="228" height="108" rx="9" fill="#FDF0EF" stroke="#C0392B" stroke-width="1.6" stroke-dasharray="6 3"/>
<rect x="1452" y="382" width="228" height="26" rx="9" fill="#C0392B"/>
<rect x="1452" y="399" width="228" height="9" fill="#C0392B"/>
<text x="1566.0" y="399.5" font-size="11" font-weight="700" fill="#FFFFFF" text-anchor="middle">SEMANTIC GAP</text>
<text x="1462" y="426" font-size="9" font-weight="400" fill="#1A2E35" text-anchor="start">•  object_id = sssom:NoTermFound</text>
<text x="1462" y="439" font-size="9" font-weight="400" fill="#1A2E35" text-anchor="start">•  Gap Register entry</text>
<text x="1462" y="452" font-size="9" font-weight="400" fill="#1A2E35" text-anchor="start">•  → ontology extension request</text>
<text x="1462" y="465" font-size="9" font-weight="400" fill="#1A2E35" text-anchor="start">•  Concept stays usable locally</text>
<text x="1462" y="478" font-size="9" font-weight="400" fill="#1A2E35" text-anchor="start">•  (OMOP custom concept)</text>
<path d="M1326 368 L1326 380" fill="none" stroke="#17356B" stroke-width="1.8" marker-end="url(#an)"/>
<path d="M1566 368 L1566 380" fill="none" stroke="#C0392B" stroke-width="1.8" marker-end="url(#ar)"/>
<rect x="1212" y="504" width="468" height="56" rx="9" fill="#F4F6F7" stroke="#9AA5AA" stroke-width="1.3"/>
<text x="1222" y="524" font-size="10" font-weight="700" fill="#17356B" text-anchor="start">OMOP (downstream, out of scope here)</text>
<text x="1222" y="539" font-size="9" font-weight="400" fill="#1A2E35" text-anchor="start">exact / broad → candidate 'Maps to' a standard concept; related &amp; gaps → local custom concept</text>
<text x="1222" y="552" font-size="9" font-weight="400" fill="#5C6A70" text-anchor="start" font-style="italic">(ID &gt; 2 billion). Which predicates produce 'Maps to' is to be agreed with the OMOP team.</text>
<path d="M1242 140 L1242 126 L888 126 L888 138" fill="none" stroke="#D97E1F" stroke-width="1.6" stroke-dasharray="7 4" marker-end="url(#ao)"/>
<rect x="902" y="119" width="290" height="14" rx="3" fill="#FFFFFF" stroke="#FFFFFF" stroke-width="0"/>
<text x="1047" y="130" font-size="9" font-weight="400" fill="#D97E1F" text-anchor="middle" font-style="italic">approved local concepts feed M3 context &amp; triage (versioned)</text>
<text x="20" y="594" font-size="13" font-weight="700" fill="#17356B" text-anchor="start">WHAT EACH LAYER HOLDS — kept separate so any output can be traced back and reviewed</text>
<rect x="21" y="604" width="178" height="118" rx="7" fill="#FFFFFF" stroke="#3B4FA8" stroke-width="1.4"/>
<rect x="21" y="604" width="178" height="6" rx="3" fill="#3B4FA8"/>
<text x="30" y="628" font-size="10" font-weight="700" fill="#3B4FA8" text-anchor="start">L1 Original utterance</text>
<text x="30" y="645" font-size="9" font-weight="700" fill="#1A2E35" text-anchor="start">by: Silver (copied)</text>
<text x="30" y="663" font-size="9" font-weight="400" fill="#1A2E35" text-anchor="start">Exact text + span</text>
<text x="30" y="677" font-size="9" font-weight="400" fill="#1A2E35" text-anchor="start">Never edited</text>
<rect x="30" y="698" width="98.0" height="16" rx="8" fill="#C0392B" opacity="0.14"/>
<text x="37" y="709.5" font-size="8.5" font-weight="700" fill="#C0392B" text-anchor="start">restricted data</text>
<rect x="206" y="604" width="178" height="118" rx="7" fill="#FFFFFF" stroke="#3B4FA8" stroke-width="1.4"/>
<rect x="206" y="604" width="178" height="6" rx="3" fill="#3B4FA8"/>
<text x="215" y="628" font-size="10" font-weight="700" fill="#3B4FA8" text-anchor="start">L2 Normalised</text>
<text x="215" y="645" font-size="9" font-weight="700" fill="#1A2E35" text-anchor="start">by: AI</text>
<text x="215" y="663" font-size="9" font-weight="400" fill="#1A2E35" text-anchor="start">Standard spelling</text>
<text x="215" y="677" font-size="9" font-weight="400" fill="#1A2E35" text-anchor="start">Edit list</text>
<rect x="215" y="698" width="98.0" height="16" rx="8" fill="#C0392B" opacity="0.14"/>
<text x="222" y="709.5" font-size="8.5" font-weight="700" fill="#C0392B" text-anchor="start">restricted data</text>
<rect x="391" y="604" width="178" height="118" rx="7" fill="#FFFFFF" stroke="#3B4FA8" stroke-width="1.4"/>
<rect x="391" y="604" width="178" height="6" rx="3" fill="#3B4FA8"/>
<text x="400" y="628" font-size="10" font-weight="700" fill="#3B4FA8" text-anchor="start">L3 Translations</text>
<text x="400" y="645" font-size="9" font-weight="700" fill="#1A2E35" text-anchor="start">by: AI × N</text>
<text x="400" y="663" font-size="9" font-weight="400" fill="#1A2E35" text-anchor="start">Literal + idiomatic</text>
<text x="400" y="677" font-size="9" font-weight="400" fill="#1A2E35" text-anchor="start">Back-translations</text>
<rect x="400" y="698" width="98.0" height="16" rx="8" fill="#C0392B" opacity="0.14"/>
<text x="407" y="709.5" font-size="8.5" font-weight="700" fill="#C0392B" text-anchor="start">restricted data</text>
<rect x="576" y="604" width="178" height="118" rx="7" fill="#FFFFFF" stroke="#3B4FA8" stroke-width="1.4"/>
<rect x="576" y="604" width="178" height="6" rx="3" fill="#3B4FA8"/>
<text x="585" y="628" font-size="10" font-weight="700" fill="#3B4FA8" text-anchor="start">L4 Interpretations</text>
<text x="585" y="645" font-size="9" font-weight="700" fill="#1A2E35" text-anchor="start">by: AI × N</text>
<text x="585" y="663" font-size="9" font-weight="400" fill="#1A2E35" text-anchor="start">Candidate senses</text>
<text x="585" y="677" font-size="9" font-weight="400" fill="#1A2E35" text-anchor="start">Rationale, evidence</text>
<rect x="585" y="698" width="98.0" height="16" rx="8" fill="#C0392B" opacity="0.14"/>
<text x="592" y="709.5" font-size="8.5" font-weight="700" fill="#C0392B" text-anchor="start">restricted data</text>
<rect x="761" y="604" width="178" height="118" rx="7" fill="#FFFFFF" stroke="#3B4FA8" stroke-width="1.4"/>
<rect x="761" y="604" width="178" height="6" rx="3" fill="#3B4FA8"/>
<text x="770" y="628" font-size="10" font-weight="700" fill="#3B4FA8" text-anchor="start">L5 Agreement</text>
<text x="770" y="645" font-size="9" font-weight="700" fill="#1A2E35" text-anchor="start">by: Code</text>
<text x="770" y="663" font-size="9" font-weight="400" fill="#1A2E35" text-anchor="start">Clusters, standing</text>
<text x="770" y="677" font-size="9" font-weight="400" fill="#1A2E35" text-anchor="start">Divergence flags</text>
<rect x="770" y="698" width="98.0" height="16" rx="8" fill="#C0392B" opacity="0.14"/>
<text x="777" y="709.5" font-size="8.5" font-weight="700" fill="#C0392B" text-anchor="start">restricted data</text>
<rect x="946" y="604" width="178" height="118" rx="7" fill="#FFFFFF" stroke="#3B4FA8" stroke-width="1.4"/>
<rect x="946" y="604" width="178" height="6" rx="3" fill="#3B4FA8"/>
<text x="955" y="628" font-size="10" font-weight="700" fill="#3B4FA8" text-anchor="start">L6 Concept candidates</text>
<text x="955" y="645" font-size="9" font-weight="700" fill="#1A2E35" text-anchor="start">by: Service + AI rank</text>
<text x="955" y="663" font-size="9" font-weight="400" fill="#1A2E35" text-anchor="start">Retrieved IDs only</text>
<text x="955" y="677" font-size="9" font-weight="400" fill="#1A2E35" text-anchor="start">No-match votes</text>
<rect x="955" y="698" width="98.0" height="16" rx="8" fill="#C0392B" opacity="0.14"/>
<text x="962" y="709.5" font-size="8.5" font-weight="700" fill="#C0392B" text-anchor="start">restricted data</text>
<rect x="1131" y="604" width="178" height="118" rx="7" fill="#FFFFFF" stroke="#3B4FA8" stroke-width="1.4"/>
<rect x="1131" y="604" width="178" height="6" rx="3" fill="#3B4FA8"/>
<text x="1140" y="628" font-size="10" font-weight="700" fill="#3B4FA8" text-anchor="start">L7 Review signals</text>
<text x="1140" y="645" font-size="9" font-weight="700" fill="#1A2E35" text-anchor="start">by: Code</text>
<text x="1140" y="663" font-size="9" font-weight="400" fill="#1A2E35" text-anchor="start">Priority, risk flags</text>
<text x="1140" y="677" font-size="9" font-weight="400" fill="#1A2E35" text-anchor="start">Confidence parts</text>
<rect x="1140" y="698" width="98.0" height="16" rx="8" fill="#C0392B" opacity="0.14"/>
<text x="1147" y="709.5" font-size="8.5" font-weight="700" fill="#C0392B" text-anchor="start">restricted data</text>
<rect x="1316" y="604" width="178" height="118" rx="7" fill="#FFFFFF" stroke="#C0392B" stroke-width="1.4"/>
<rect x="1316" y="604" width="178" height="6" rx="3" fill="#C0392B"/>
<text x="1325" y="628" font-size="10" font-weight="700" fill="#C0392B" text-anchor="start">L8 Reviewer decisions</text>
<text x="1325" y="645" font-size="9" font-weight="700" fill="#1A2E35" text-anchor="start">by: Humans</text>
<text x="1325" y="663" font-size="9" font-weight="400" fill="#1A2E35" text-anchor="start">Per reviewer, per layer</text>
<text x="1325" y="677" font-size="9" font-weight="400" fill="#1A2E35" text-anchor="start">Blind pass</text>
<rect x="1325" y="698" width="98.0" height="16" rx="8" fill="#C0392B" opacity="0.14"/>
<text x="1332" y="709.5" font-size="8.5" font-weight="700" fill="#C0392B" text-anchor="start">restricted data</text>
<rect x="1501" y="604" width="178" height="118" rx="7" fill="#FFFFFF" stroke="#D97E1F" stroke-width="1.4"/>
<rect x="1501" y="604" width="178" height="6" rx="3" fill="#D97E1F"/>
<text x="1510" y="628" font-size="10" font-weight="700" fill="#D97E1F" text-anchor="start">L9 Approved meaning</text>
<text x="1510" y="645" font-size="9" font-weight="700" fill="#1A2E35" text-anchor="start">by: Adjudicated humans</text>
<text x="1510" y="663" font-size="9" font-weight="400" fill="#1A2E35" text-anchor="start">Local concept +</text>
<text x="1510" y="677" font-size="9" font-weight="400" fill="#1A2E35" text-anchor="start">SSSOM / gap</text>
<rect x="1510" y="698" width="159.6" height="16" rx="8" fill="#17694A" opacity="0.14"/>
<text x="1517" y="709.5" font-size="8.5" font-weight="700" fill="#17694A" text-anchor="start">reusable — no patient data</text>
<text x="20" y="742" font-size="10" font-weight="400" fill="#5C6A70" text-anchor="start" font-style="italic">Only L9 leaves the DSA-approved environment. L1–L8 form the audit trail: package JSON + decisions, hashed and versioned with the run.</text>
<text x="20" y="776" font-size="13" font-weight="700" fill="#17356B" text-anchor="start">GUARDS ENFORCED IN CODE (policy/farajamh_mr_odrl.jsonld, which extends the upstream ODRL policy)</text>
<rect x="20" y="790" width="825" height="22" rx="5" fill="#F2F6FA" stroke="#17356B" stroke-width="1"/>
<rect x="20" y="790" width="34" height="22" rx="5" fill="#17356B"/>
<text x="37" y="805" font-size="10" font-weight="700" fill="#FFFFFF" text-anchor="middle">D1</text>
<text x="64" y="805" font-size="10" font-weight="400" fill="#1A2E35" text-anchor="start">Restricted data → only local, DSA-approved model hosts (upstream Gemini CLI path off)</text>
<rect x="855" y="790" width="825" height="22" rx="5" fill="#F2F6FA" stroke="#17356B" stroke-width="1"/>
<rect x="855" y="790" width="34" height="22" rx="5" fill="#17356B"/>
<text x="872" y="805" font-size="10" font-weight="700" fill="#FFFFFF" text-anchor="middle">D2</text>
<text x="899" y="805" font-size="10" font-weight="400" fill="#1A2E35" text-anchor="start">Safety-flagged utterances blocked until escalation is recorded</text>
<rect x="20" y="816" width="825" height="22" rx="5" fill="#F2F6FA" stroke="#17356B" stroke-width="1"/>
<rect x="20" y="816" width="34" height="22" rx="5" fill="#17356B"/>
<text x="37" y="831" font-size="10" font-weight="700" fill="#FFFFFF" text-anchor="middle">D3</text>
<text x="64" y="831" font-size="10" font-weight="400" fill="#1A2E35" text-anchor="start">Concept IDs only from terminology-service responses; invented IDs dropped</text>
<rect x="855" y="816" width="825" height="22" rx="5" fill="#F2F6FA" stroke="#17356B" stroke-width="1"/>
<rect x="855" y="816" width="34" height="22" rx="5" fill="#17356B"/>
<text x="872" y="831" font-size="10" font-weight="700" fill="#FFFFFF" text-anchor="middle">D4</text>
<text x="899" y="831" font-size="10" font-weight="400" fill="#1A2E35" text-anchor="start">No winner: minority readings retained and labelled</text>
<rect x="20" y="842" width="825" height="22" rx="5" fill="#F2F6FA" stroke="#17356B" stroke-width="1"/>
<rect x="20" y="842" width="34" height="22" rx="5" fill="#17356B"/>
<text x="37" y="857" font-size="10" font-weight="700" fill="#FFFFFF" text-anchor="middle">D5</text>
<text x="64" y="857" font-size="10" font-weight="400" fill="#1A2E35" text-anchor="start">≥ 3 interpreter models from ≥ 2 families</text>
<rect x="855" y="842" width="825" height="22" rx="5" fill="#F2F6FA" stroke="#17356B" stroke-width="1"/>
<rect x="855" y="842" width="34" height="22" rx="5" fill="#17356B"/>
<text x="872" y="857" font-size="10" font-weight="700" fill="#FFFFFF" text-anchor="middle">P1</text>
<text x="899" y="857" font-size="10" font-weight="400" fill="#1A2E35" text-anchor="start">No SSSOM, local concept or OMOP row without a final human decision; placeholders refused</text>
<rect x="20" y="868" width="825" height="22" rx="5" fill="#F2F6FA" stroke="#17356B" stroke-width="1"/>
<rect x="20" y="868" width="34" height="22" rx="5" fill="#17356B"/>
<text x="37" y="883" font-size="10" font-weight="700" fill="#FFFFFF" text-anchor="middle">P2</text>
<text x="64" y="883" font-size="10" font-weight="400" fill="#1A2E35" text-anchor="start">Package status can never be 'approved'</text>
<rect x="20" y="905" width="1660" height="72" rx="9" fill="#FCFDFD" stroke="#9AA5AA" stroke-width="1.2"/>
<text x="34" y="925" font-size="11" font-weight="700" fill="#17356B" text-anchor="start">LEGEND</text>
<rect x="34" y="935" width="13" height="13" rx="3" fill="#3B4FA8"/>
<text x="54" y="946" font-size="9.5" font-weight="400" fill="#1A2E35" text-anchor="start">AI / automation</text>
<rect x="234" y="935" width="13" height="13" rx="3" fill="#C0392B"/>
<text x="254" y="946" font-size="9.5" font-weight="400" fill="#1A2E35" text-anchor="start">Human decision / safety</text>
<rect x="434" y="935" width="13" height="13" rx="3" fill="#D97E1F"/>
<text x="454" y="946" font-size="9.5" font-weight="400" fill="#1A2E35" text-anchor="start">FarajaMH local concept</text>
<rect x="634" y="935" width="13" height="13" rx="3" fill="#17694A"/>
<text x="654" y="946" font-size="9.5" font-weight="400" fill="#1A2E35" text-anchor="start">External ontology</text>
<rect x="834" y="935" width="13" height="13" rx="3" fill="#17356B"/>
<text x="854" y="946" font-size="9.5" font-weight="400" fill="#1A2E35" text-anchor="start">Governed output</text>
<rect x="1034" y="935" width="13" height="13" rx="3" fill="#9AA5AA"/>
<text x="1054" y="946" font-size="9.5" font-weight="400" fill="#1A2E35" text-anchor="start">Upstream / downstream (context)</text>
<text x="34" y="968" font-size="9.5" font-weight="700" fill="#1A2E35" text-anchor="start">Relation to upstream Minority Report code:</text>
<rect x="272" y="956" width="226.79999999999998" height="16" rx="8" fill="#17694A" opacity="0.14"/>
<text x="279" y="967.5" font-size="8.5" font-weight="700" fill="#17694A" text-anchor="start">adapted / extends: reused with changes</text>
<rect x="508.79999999999995" y="956" width="215.6" height="16" rx="8" fill="#D97E1F" opacity="0.14"/>
<text x="515.8" y="967.5" font-size="8.5" font-weight="700" fill="#D97E1F" text-anchor="start">modified / replaces: logic rewritten</text>
<rect x="734.4" y="956" width="126.0" height="16" rx="8" fill="#C0392B" opacity="0.14"/>
<text x="741.4" y="967.5" font-size="8.5" font-weight="700" fill="#C0392B" text-anchor="start">new: not in upstream</text>
<text x="1670" y="968" font-size="9" font-weight="400" fill="#5C6A70" text-anchor="end">v1 · 22 Sep 2026 · pairs with FarajaMH Semantic Architecture v10</text>
</svg>